<svg id="Layer_1" enable-background="new 0 0 511.773 511.773" height="512" viewBox="0 0 511.773 511.773" width="512" xmlns="http://www.w3.org/2000/svg"><g><g><g><path d="m389.596 314.287c0-18.275-6.241-35.087-16.701-48.448-4.888-6.244-7.399-14.019-7.399-21.945v-13.481c0-86.002-69.813-155.72-155.931-155.72-86.119 0-155.931 69.719-155.931 155.721l-.105 10.783c-.079 8.106-3.149 15.837-8.394 22.024-11.655 13.75-18.505 31.576-18.505 51.067 0 27.409 14.023 51.538 35.29 65.647 6.261 4.154 9.078 11.787 7.568 19.141-3.28 15.975 1.306 34.811 18.176 52.437 3.66 3.824 8.77 5.927 14.066 5.927h212.752c5.306 0 10.424-2.107 14.09-5.937 16.863-17.624 21.445-36.455 18.167-52.427-1.51-7.354 1.307-14.987 7.568-19.141 21.266-14.11 35.289-38.239 35.289-65.648z" fill="#7974e3"/><path d="m372.895 265.838c-4.888-6.244-7.399-14.019-7.399-21.945v-13.481c0-86.002-69.813-155.72-155.931-155.72-5.061 0-10.063.25-15 .72 79.08 7.539 140.931 74.052 140.931 155v13.481c0 7.926 2.511 15.701 7.399 21.945 10.46 13.361 16.701 30.173 16.701 48.448 0 27.409-14.023 51.538-35.291 65.646-6.261 4.154-9.078 11.787-7.568 19.141 3.279 15.972-1.304 34.804-18.167 52.427-3.665 3.831-8.784 5.937-14.09 5.937h30c5.305 0 10.424-2.107 14.09-5.937 16.863-17.624 21.445-36.455 18.167-52.427-1.51-7.354 1.307-14.987 7.568-19.141 21.268-14.108 35.291-38.237 35.291-65.646 0-18.275-6.241-35.086-16.701-48.448z" fill="#6b64e8"/><g><g><path d="m67.321 504.273c0-78.416 63.655-141.984 142.177-141.984s142.177 63.569 142.177 141.984z" fill="#fd6dc3"/></g></g><path d="m209.497 362.289c-5.067 0-10.07.27-15 .786 71.47 7.485 127.177 67.843 127.177 141.198h30c0-78.416-63.655-141.984-142.177-141.984z" fill="#f759b8"/><path d="m209.497 447.857 55.543-75.27h-111.086z" fill="#ffd2a8"/><path d="m153.956 372.587 13.635 100.059 41.907-24.789h-.001l41.908 24.789 13.635-100.059-55.25 72.577z" fill="#ffadde"/><path d="m162.547 183.756c24.01 100.927 124.242 95.078 171.279 86.359-3.438 65.503-57.71 117.56-124.158 117.56-68.538 0-124.119-55.382-124.328-123.779 63.622-16.489 77.207-80.14 77.207-80.14z" fill="#ffe2c7"/></g><g><g><path d="m438.353 124.661c0-41.719-34.236-75.423-76.087-74.434-39.82.941-72.118 33.798-72.495 73.714-.271 28.71 15.679 53.707 39.219 66.365v12.51c0 5.108 4.132 9.249 9.229 9.249h51.682c5.097 0 9.229-4.141 9.229-9.249v-12.51c23.344-12.552 39.223-37.237 39.223-65.645z" fill="#fdf486"/><path d="m362.266 50.227c-4.502.106-8.9.641-13.175 1.527 33.821 6.968 59.262 36.95 59.262 72.907 0 28.408-15.879 53.093-39.223 65.645v12.51c0 5.108-4.132 9.249-9.229 9.249h30c5.097 0 9.229-4.141 9.229-9.249v-12.51c23.344-12.552 39.223-37.237 39.223-65.645 0-41.718-34.236-75.423-76.087-74.434z" fill="#fdf056"/><path d="m373.756 249.062h-18.93c-9.172 0-16.607-7.435-16.607-16.607v-20.39h52.143v20.39c.001 9.172-7.434 16.607-16.606 16.607z" fill="#cfcfff"/><path d="m370.363 212.066v20.39c0 8.991-7.15 16.295-16.072 16.58.179.006.354.027.535.027h18.93c9.172 0 16.607-7.435 16.607-16.607v-20.39z" fill="#c1bfff"/></g></g></g><g fill="#060606"><path d="m233.907 324.566c-13.459 13.441-35.361 13.441-48.82 0-6.861-6.853-17.46 3.761-10.6 10.614 9.652 9.639 22.331 14.458 35.01 14.458s25.357-4.82 35.01-14.458c6.861-6.852-3.739-17.466-10.6-10.614z"/><path d="m445.306 115.274c-.47-4.117-4.197-7.079-8.301-6.603-4.115.469-7.072 4.185-6.604 8.3.3 2.626.451 5.214.451 7.69 0 24.717-13.517 47.34-35.274 59.039-2.432 1.307-3.948 3.845-3.948 6.605v12.511c0 .964-.775 1.749-1.729 1.749h-51.681c-.954 0-1.729-.785-1.729-1.749v-12.511c0-2.761-1.517-5.298-3.948-6.605-21.992-11.826-35.507-34.697-35.271-59.688.336-35.71 29.572-65.446 65.171-66.287 21.364-.524 41.784 9.341 54.732 26.336 2.511 3.294 7.214 3.931 10.512 1.42 3.294-2.511 3.93-7.216 1.42-10.511-15.853-20.806-40.935-32.864-67.018-32.242-21.218.501-41.18 9.195-56.21 24.48-6.289 6.396-11.397 13.65-15.246 21.472-24.617-14.069-52.482-21.49-81.069-21.49-38.849 0-76.036 13.94-107.54 40.313-34.997 29.299-55.892 75.246-55.892 122.908 0 .278.016.556.046.832 1.183 10.592-1.347 20.732-6.766 27.125-13.081 15.431-20.284 35.289-20.284 55.917 0 28.967 14.446 55.844 38.645 71.896 3.584 2.377 5.299 6.845 4.367 11.382-2.272 11.066-2.263 28.032 10.202 46.825-8.224 18.768-12.523 39.094-12.523 59.883 0 4.142 3.357 7.5 7.5 7.5s7.5-3.358 7.5-7.5c0-50.331 28.504-96.666 73.072-119.61 1.147 10.359 2.213 20.749 4.379 30.959 1.978 9.316 16.698 6.431 14.674-3.113-.848-3.994-1.516-8.09-2.09-12.211l33.52 45.425-24.878 14.715-.091-.669c-.56-4.104-4.352-6.978-8.444-6.418-4.104.56-6.978 4.34-6.419 8.444l1.616 11.864c.67 4.906 6.522 8.24 11.25 5.442 12.474-7.378 38.175-22.716 38.175-22.716s34.265 20.412 37.632 22.489c4.777 3.031 9.692.362 11.574-4.926.032-.09.025-.197.046-.29l12.136-89.052c44.682 22.927 73.202 69.156 73.202 119.666 0 4.142 3.357 7.5 7.5 7.5s7.5-3.358 7.5-7.5c0-21.943-4.842-43.159-13.703-62.389 8.676-14.237 11.656-29.496 8.613-44.318-.932-4.537.783-9.004 4.368-11.382 24.197-16.052 38.644-42.929 38.644-71.896 0-19.432-6.326-37.784-18.295-53.071-1.142-1.459-2.122-3.058-2.945-4.75 12.312-1.068 22.006-11.425 22.006-24.01v-14.911c5.218-2.838 8.768-8.376 8.768-14.728v-8.17c24.305-14.85 39.223-41.262 39.223-69.985.001-3.04-.184-6.198-.546-9.386zm-235.547 317.55-31.973-41.56c10.216 2.549 20.895 3.911 31.882 3.911 10.904 0 21.51-1.325 31.661-3.822zm-.091-52.65c-62.334 0-113.538-49.15-116.678-110.676 31.013-9.798 55.392-33.12 69.071-62.346 31.878 79.506 117.557 78.746 163.405 71.957-7.646 57.385-56.804 101.065-115.798 101.065zm35.874 79.945c-.062-.04-.124-.079-.187-.119-8.196-5.186-16.053-10.156-24.461-14.651l32.699-44.312zm136.554-145.832c0 23.927-11.938 46.131-31.937 59.396-8.71 5.779-12.938 16.337-10.769 26.899 1.699 8.274.799 16.837-2.57 25.225-13.289-21.51-31.989-39.648-54.712-52.258 33.883-22.265 56.934-59.745 59.207-103.041-.44-5.453-3.392-8.043-8.856-7.768-23.704 4.395-58.692 7.635-90.775-1.878-37.897-11.238-62.068-37.764-71.841-78.842-1.776-7.476-12.995-7.49-14.631.17-.126.591-13.294 59.294-71.755 74.445-3.316.86-5.629 3.857-5.618 7.283.14 45.656 23.731 85.935 59.318 109.458-23.347 12.883-43.074 32.083-56.636 55.034-4.288-9.209-5.566-18.678-3.687-27.829 2.169-10.563-2.059-21.121-10.769-26.899-19.998-13.266-31.937-35.47-31.937-59.396 0-17.079 5.94-33.493 16.726-46.217 8.079-9.53 11.814-23.38 10.279-38.056.114-43.133 18.981-84.604 50.52-111.007 28.771-24.084 62.627-36.815 97.911-36.815 26.761 0 52.823 7.149 75.668 20.694-1.872 6.773-2.893 13.811-2.961 20.985-.274 29.056 14.644 55.771 39.219 70.777v8.169c0 6.534 3.765 12.191 9.229 14.95v14.688c0 13.292 10.814 24.107 24.106 24.107h5.022c1.519 5.069 3.939 9.81 7.141 13.899 9.884 12.625 15.108 27.779 15.108 43.827zm.766-81.831c0 5.021-4.085 9.107-9.106 9.107h-18.93c-5.021 0-9.106-4.085-9.106-9.107v-12.89h37.143v12.89z"/><path d="m363.704 173.981c4.143 0 7.5-3.358 7.5-7.5v-4.284c8.519-2.924 13.975-10.532 15.242-18.06 1.762-10.461-3.894-19.911-14.071-23.515-5.105-1.808-11.864-2.972-13.789-6.377-1.586-2.806.621-5.973 2.653-6.78 4.261-1.692 7.427.474 9.028 1.356 2.227 1.227 6.792 3.858 10.566.451 6-5.417-.509-11.579-.509-11.579-1.795-1.659-4.982-3.667-9.12-4.812v-3.331c0-4.142-3.357-7.5-7.5-7.5s-7.5 3.358-7.5 7.5v3.793c-6.593 2.275-11.482 8.026-12.835 15.197-1.3 6.889.979 13.594 5.95 17.499 4.748 3.729 11.48 6.396 18.049 8.722 4.248 1.504 4.676 4.574 4.287 6.885-.55 3.26-3.287 6.784-8.002 6.815-5.341.043-6.728-.184-10.684-2.775-3.463-2.271-8.111-1.302-10.384 2.162-2.27 3.464-1.302 8.114 2.163 10.384 4.356 2.855 7.689 4.2 11.455 4.798v3.451c.001 4.143 3.359 7.5 7.501 7.5z"/><path d="m364.061 34.212c4.143 0 7.5-3.358 7.5-7.5v-19.439c0-9.697-15-9.697-15 0v19.439c0 4.142 3.357 7.5 7.5 7.5z"/><path d="m287.615 62.168c6.86 6.853 17.461-3.761 10.6-10.613l-13.764-13.745c-6.86-6.854-17.461 3.761-10.6 10.613z"/><path d="m263.956 120.92h-19.466c-9.697 0-9.697 15 0 15h19.466c9.697 0 9.697-15 0-15z"/><path d="m288.847 194.163-13.764 13.745c-6.862 6.853 3.74 17.466 10.6 10.613l13.764-13.745c6.861-6.852-3.74-17.468-10.6-10.613z"/><path d="m442.247 192.933c-6.862-6.853-17.461 3.761-10.6 10.613l13.764 13.746c6.859 6.853 17.461-3.761 10.6-10.613z"/><path d="m485.371 119.181h-19.465c-9.697 0-9.697 15 0 15h19.465c9.697 0 9.697-15 0-15z"/><path d="m435.716 63.132c1.918 0 3.836-.731 5.3-2.193l13.764-13.745c6.861-6.852-3.738-17.466-10.6-10.613l-13.764 13.745c-4.457 4.45-1 12.806 5.3 12.806z"/></g></g></svg>