<svg id="Layer_5" enable-background="new 0 0 64 64" height="512" viewBox="0 0 64 64" width="512" xmlns="http://www.w3.org/2000/svg"><g><g><g><path d="m62 62h-60c0-1.1.45-2.1 1.17-2.83.73-.72 1.73-1.17 2.83-1.17h10 6 20 6 10c2.21 0 4 1.79 4 4z" fill="#dfb28b"/></g><g><path d="m52 16-2-4-2 4h-8l-2-4-2 4h-8l-2-4-2 4h-8l-2-4-2 4h-6v42h52v-42z" fill="#ccd1d9"/></g><g><path d="m22 45.62v12.38h-6v-6.23c0-2.79 1.93-5.22 4.65-5.84z" fill="#b4dd7f"/></g><g><path d="m38 44.69v5.31h-12v-5.31l3-.69v-1c0 1.66 1.34 3 3 3 .83 0 1.58-.34 2.12-.88s.88-1.29.88-2.12v1z" fill="#b4dd7f"/></g><g><path d="m48 51.77v6.23h-6v-12.38l1.35.31c2.72.62 4.65 3.05 4.65 5.84z" fill="#b4dd7f"/></g><g><path d="m22 45.62.63-.15 3.37-.78v5.31h12v-5.31l3.37.78.63.15v12.38h-20z" fill="#fcd770"/></g><g><path d="m32 42 3-.68v1.68c0 .83-.34 1.58-.88 2.12s-1.29.88-2.12.88c-1.66 0-3-1.34-3-3v-1.68c.91.44 1.93.68 3 .68z" fill="#f0d0b4"/></g><g><path d="m39 30v5c0 1.94-.78 3.68-2.05 4.95-.56.56-1.22 1.03-1.95 1.37l-3 .68c-1.07 0-2.09-.24-3-.68-2.37-1.12-4-3.52-4-6.32v-5c2.62-.06 5.14-1.14 7-3 .96.96 2.09 1.71 3.32 2.22 1.16.48 2.41.75 3.68.78z" fill="#f0d0b4"/></g><g><path d="m33 20h-2c-5.52 0-10 4.48-10 10v10c0 2.02.6 3.9 1.63 5.47l3.37-.78 3-.69v-1-1.68c-2.37-1.12-4-3.52-4-6.32v-5c2.62-.06 5.14-1.14 7-3 .96.96 2.09 1.71 3.32 2.22 1.16.48 2.41.75 3.68.78v5c0 1.94-.78 3.68-2.05 4.95-.56.56-1.22 1.03-1.95 1.37v1.68 1l3 .69 3.37.78c1.03-1.57 1.63-3.45 1.63-5.47v-10c0-5.52-4.48-10-10-10z" fill="#656d78"/></g><g><path d="m10 20h6v8h-6z" fill="#69d6f4"/></g><g><path d="m48 20h6v8h-6z" fill="#69d6f4"/></g><g><path d="m17 2-3 10h-12l5-10z" fill="#ff826e"/></g><g><path d="m36 2 2 10h-12l2-10z" fill="#ff826e"/></g><g><path d="m57 2 5 10h-12l-3-10z" fill="#ff826e"/></g><g><path d="m47 2 3 10h-12l-2-10z" fill="#e6e9ed"/></g><g><path d="m28 2-2 10h-12l3-10z" fill="#e6e9ed"/></g><g><path d="m26 12-2 4h-8l-2-4z" fill="#ccd1d9"/></g><g><path d="m50 12-2 4h-8l-2-4z" fill="#ccd1d9"/></g><g><path d="m62 12-2 4h-2-6l-2-4z" fill="#fc6e51"/></g><g><path d="m38 12-2 4h-8l-2-4z" fill="#fc6e51"/></g><g><path d="m14 12-2 4h-6-2l-2-4z" fill="#fc6e51"/></g></g><g><path d="m59 57.101v-40.101h1.618l2.5-5-5.5-11h-51.236l-5.5 11 2.5 5h1.618v40.101c-2.279.465-4 2.485-4 4.899v1h62v-1c0-2.414-1.721-4.434-4-4.899zm-6.382-42.101-1-2h8.764l-1 2zm-15.838-4h-9.56l1.6-8h6.36zm.44-8h9.036l2.4 8h-9.836zm-12.04 8h-9.836l2.4-8h9.036zm-.798 2-1 2h-6.764l-1-2zm12 0-1 2h-6.764l-1-2zm12 0-1 2h-6.764l-1-2zm12-2h-9.638l-2.4-8h8.038zm-52.764-8h8.038l-2.4 8h-9.638zm-4 10h8.764l-1 2h-6.764zm9 4 1.382-2.764 1.382 2.764h9.236l1.382-2.764 1.382 2.764h9.236l1.382-2.764 1.382 2.764h9.236l1.382-2.764 1.382 2.764h5.618v40h-8v-5.227c0-3.278-2.231-6.083-5.426-6.821l-.678-.156c.722-1.488 1.104-3.121 1.104-4.796v-10c0-6.065-4.935-11-11-11h-2c-6.065 0-11 4.935-11 11v10c0 1.675.382 3.308 1.104 4.796l-.678.156c-3.195.738-5.426 3.543-5.426 6.821v5.227h-8v-40zm9.382 23v-9h2v4c0 2.953 1.613 5.532 4 6.918v1.287l-4.867 1.123c-.729-1.324-1.133-2.8-1.133-4.328zm18.867 4.327-4.867-1.122v-1.287c2.387-1.386 4-3.964 4-6.918v-4h2v9c0 1.528-.404 3.004-1.133 4.327zm-13.867 1.161 1.619-.374c.708 1.128 1.954 1.886 3.381 1.886s2.673-.758 3.381-1.886l1.619.374v3.512h-10zm-1-14.564c2.216-.243 4.292-1.124 6-2.567 1.708 1.443 3.784 2.324 6 2.567v4.076c0 3.309-2.691 6-6 6s-6-2.691-6-6zm4 11.813c.641.166 1.308.263 2 .263s1.359-.097 2-.263v.263c0 1.103-.897 2-2 2s-2-.897-2-2zm9.243-13.737c-2.469 0-4.79-.961-6.536-2.707l-.707-.707-.707.707c-1.746 1.746-4.067 2.707-6.536 2.707h-2.698c.5-4.493 4.317-8 8.941-8h2c4.624 0 8.441 3.507 8.941 8zm-22.243 28v-5.227c0-2.342 1.594-4.345 3.876-4.872l.124-.028v10.127zm6-10.589 2-.462v5.051h14v-5.051l2 .462v10.589h-18zm20 .462.124.029c2.282.526 3.876 2.529 3.876 4.871v5.227h-4zm-39.829 14.127c.413-1.164 1.525-2 2.829-2h52c1.304 0 2.416.836 2.829 2z"/><path d="m32 39c2.206 0 4-1.794 4-4h-2c0 1.103-.897 2-2 2s-2-.897-2-2h-2c0 2.206 1.794 4 4 4z"/><circle cx="35" cy="32" r="1"/><circle cx="29" cy="32" r="1"/><path d="m37 53h2v2h-2z"/><path d="m29 53h2v2h-2z"/><path d="m33 53h2v2h-2z"/><path d="m25 53h2v2h-2z"/><path d="m17 29v-10h-8v10zm-6-8h4v6h-4z"/><path d="m55 19h-8v10h8zm-2 8h-4v-6h4z"/></g></g></svg>