<?xml version="1.0"?>
<svg xmlns="http://www.w3.org/2000/svg" id="Layer_1" data-name="Layer 1" viewBox="0 0 512 512" width="512" height="512"><title>Entrepreneur male</title><path d="M407.44,323.18H343.43a1.4,1.4,0,0,1-1.39-1.67l.84-6.38a49.743,49.743,0,0,0-14.72-42.76,75.236,75.236,0,0,1-23.6-57.76c1.39-38.04,32.21-69.42,70.25-71.91a75.116,75.116,0,0,1,59.16,126.6q-1.485,1.575-3.07,3.07c-10.27,9.71-15.55,23.87-14.72,38.31l.56,10.56a1.911,1.911,0,0,1-1.85,1.94h-7.45Zm-27.94-52.3a13.015,13.015,0,1,0-13.02-13.02A13.021,13.021,0,0,0,379.5,270.88Z" style="fill:#6fe3ff"/><path d="M407.44,342.52v4.65a15.24,15.24,0,0,1-15.23,15.24H366.79a15.24,15.24,0,0,1-15.23-15.24v-4.65h55.88Z" style="fill:#6fe3ff"/><polygon points="407.44 323.18 407.44 342.52 351.82 342.52 351.56 342.52 351.56 323.18 407.44 323.18" style="fill:#6fe3ff"/><path d="M379.5,244.85a13.015,13.015,0,1,1-13.02,13.01A13.012,13.012,0,0,1,379.5,244.85Z" style="fill:#6fe3ff"/><polygon points="343.7 448.35 318.84 423.49 369 423.49 369 473.65 343.7 448.35" style="fill:#6fe3ff"/><polygon points="165.84 63.65 190.7 88.51 140.54 88.51 140.54 38.35 165.84 63.65" style="fill:#6fe3ff"/><path d="M187.5,345.75v43.97H153.09V345.75a31.2,31.2,0,0,1,17.16-25.34l.01-.03.08.03A31.224,31.224,0,0,1,187.5,345.75Z" style="fill:#e48e66"/><path d="M177.76,211.43a14.886,14.886,0,0,1-11.86,18.23v.1a58.55,58.55,0,1,1-117.1,0v-.09a14.91,14.91,0,0,1-11.9-18.24,11.237,11.237,0,0,1,10.04-8.55l.07-.02a4.832,4.832,0,0,0,2.49,3.19s8.7,3.49,8.76,2.63l2.07-25.78a2.4,2.4,0,0,1,2.65-2.2l9.61,1.04a56.591,56.591,0,0,0,52.18-23.48l5.72.25a24.372,24.372,0,0,1,21.33,14.79l9.15,37.73,4.93-4.61a5.932,5.932,0,0,0,1.84-3.53h.02A11.206,11.206,0,0,1,177.76,211.43Z" style="fill:#f8ec7d"/><path d="M170.26,320.38l-.01.03a31.2,31.2,0,0,0-17.16,25.34v43.97H125.88L114.32,327.4l11.19,7.46,18.02-24.02v-.1h.03Z" style="fill:#e48e66"/><path d="M107.35,116.55a61.942,61.942,0,0,1,61.8,66.2l-1.36,19.7c-.01.15-.03.3-.05.44a5.932,5.932,0,0,1-1.84,3.53l-4.93,4.61-9.15-37.73a24.372,24.372,0,0,0-21.33-14.79l-5.72-.25a56.591,56.591,0,0,1-52.18,23.48l-9.61-1.04a2.4,2.4,0,0,0-2.65,2.2l-2.07,25.78c-.06.86-8.76-2.63-8.76-2.63a4.832,4.832,0,0,1-2.49-3.19,3.967,3.967,0,0,1-.12-.78l-1.34-19.33c-.1-1.46-.15-2.9-.15-4.34A61.949,61.949,0,0,1,107.35,116.55Z" style="fill:#e48e66"/><polygon points="127.24 309.69 143.53 298.83 143.53 310.74 143.53 310.84 125.51 334.86 114.32 327.4 114.32 327.39 107.5 322.85 127.24 309.69" style="fill:#af593c"/><path d="M127.24,292.12v17.57L107.5,322.85,87.81,309.72V285.19l.07-.2a58.663,58.663,0,0,0,39.36-.14v7.27Z" style="fill:#f8ec7d"/><polygon points="125.88 389.72 126.01 390.41 108 414.43 89.98 390.41 90.11 389.72 101.83 326.63 107.5 322.85 114.32 327.39 114.32 327.4 125.88 389.72" style="fill:#af593c"/><polygon points="87.81 309.72 107.5 322.85 101.83 326.63 89.49 334.86 71.47 310.84 71.47 310.75 71.47 298.83 87.81 309.72" style="fill:#af593c"/><path d="M101.83,326.63,90.11,389.72H62.07V345.75a31.224,31.224,0,0,0-17.16-25.34l-.03-.08,26.54-9.58h.05v.09l18.02,24.02Z" style="fill:#e48e66"/><path d="M62.07,345.75v43.97H27.5V345.75a31.224,31.224,0,0,1,17.16-25.34l.22-.08.03.08A31.224,31.224,0,0,1,62.07,345.75Z" style="fill:#e48e66"/><path d="M165.83,63.66l.01-.01A137.056,137.056,0,0,1,369.08,87.69" style="fill:none;stroke:#63316d;stroke-linecap:round;stroke-linejoin:round;stroke-width:12px"/><polygon points="190.7 88.51 140.54 88.51 140.54 38.35 165.84 63.65 190.7 88.51" style="fill:none;stroke:#63316d;stroke-linecap:round;stroke-linejoin:round;stroke-width:12px"/><path d="M343.72,448.34c-.01.01-.01.01-.02.01a137.056,137.056,0,0,1-203.24-24.04" style="fill:none;stroke:#63316d;stroke-linecap:round;stroke-linejoin:round;stroke-width:12px"/><polygon points="318.84 423.49 369 423.49 369 473.65 343.7 448.35 318.84 423.49" style="fill:none;stroke:#63316d;stroke-linecap:round;stroke-linejoin:round;stroke-width:12px"/><polyline points="87.81 309.82 87.81 309.72 87.81 292.04 87.81 285.19" style="fill:none;stroke:#63316d;stroke-linejoin:round;stroke-width:12px"/><polyline points="127.24 284.86 127.24 284.89 127.24 292.12 127.24 309.69 127.24 309.71" style="fill:none;stroke:#63316d;stroke-linejoin:round;stroke-width:12px"/><path d="M90.11,389.72H27.5V345.75a31.224,31.224,0,0,1,17.16-25.34l.22-.08,26.54-9.58" style="fill:none;stroke:#63316d;stroke-linejoin:round;stroke-width:12px"/><path d="M143.56,310.74l26.7,9.64.08.03a31.224,31.224,0,0,1,17.16,25.34v43.97H125.88" style="fill:none;stroke:#63316d;stroke-linejoin:round;stroke-width:12px"/><path d="M47.01,202.86a4.832,4.832,0,0,0,2.49,3.19s8.7,3.49,8.76,2.63l2.07-25.78a2.4,2.4,0,0,1,2.65-2.2l9.61,1.04a56.591,56.591,0,0,0,52.18-23.48l5.72.25a24.372,24.372,0,0,1,21.33,14.79l9.15,37.73,4.93-4.61a5.932,5.932,0,0,0,1.84-3.53c.02-.14.04-.29.05-.44l1.36-19.7A61.948,61.948,0,1,0,45.4,178.41c0,1.44.05,2.88.15,4.34l1.34,19.33A3.967,3.967,0,0,0,47.01,202.86Z" style="fill:none;stroke:#63316d;stroke-linecap:round;stroke-linejoin:round;stroke-width:12px"/><path d="M167.76,202.89a11.206,11.206,0,0,1,10,8.54,14.886,14.886,0,0,1-11.86,18.23v.1a58.55,58.55,0,1,1-117.1,0v-.09a14.91,14.91,0,0,1-11.9-18.24,11.237,11.237,0,0,1,10.04-8.55" style="fill:none;stroke:#63316d;stroke-linejoin:round;stroke-width:12px"/><polygon points="101.83 326.63 89.49 334.86 71.47 310.84 71.47 310.75 71.47 298.83 87.81 309.72 107.5 322.85 101.83 326.63" style="fill:none;stroke:#63316d;stroke-linecap:round;stroke-linejoin:round;stroke-width:12px"/><polyline points="114.32 327.4 125.51 334.86 143.53 310.84 143.53 310.74 143.53 298.83 127.24 309.69 107.5 322.85 114.32 327.39" style="fill:none;stroke:#63316d;stroke-linecap:round;stroke-linejoin:round;stroke-width:12px"/><line x1="71.47" y1="298.77" x2="87.81" y2="292.04" style="fill:none;stroke:#63316d;stroke-linejoin:round;stroke-width:12px"/><polyline points="143.53 298.83 127.24 292.12 127.19 292.1" style="fill:none;stroke:#63316d;stroke-linejoin:round;stroke-width:12px"/><polyline points="114.32 327.4 125.88 389.72 126.01 390.41 108 414.43 89.98 390.41 90.11 389.72 101.83 326.63 101.83 326.62 101.99 325.85" style="fill:none;stroke:#63316d;stroke-linejoin:round;stroke-width:12px"/><line x1="114.32" y1="327.39" x2="114.32" y2="327.4" style="fill:none;stroke:#63316d;stroke-linecap:round;stroke-linejoin:round;stroke-width:12px"/><line x1="114" y1="325.85" x2="114.32" y2="327.39" style="fill:none;stroke:#63316d;stroke-linejoin:round;stroke-width:12px"/><path d="M62.07,389.72V345.75a31.224,31.224,0,0,0-17.16-25.34" style="fill:none;stroke:#63316d;stroke-linejoin:round;stroke-width:12px"/><path d="M153.09,389.72V345.75a31.2,31.2,0,0,1,17.16-25.34" style="fill:none;stroke:#63316d;stroke-linejoin:round;stroke-width:12px"/><path d="M351.56,323.18h-8.13a1.4,1.4,0,0,1-1.39-1.67l.84-6.38a49.743,49.743,0,0,0-14.72-42.76,75.236,75.236,0,0,1-23.6-57.76c1.39-38.04,32.21-69.42,70.25-71.91a75.116,75.116,0,0,1,59.16,126.6q-1.485,1.575-3.07,3.07c-10.27,9.71-15.55,23.87-14.72,38.31l.56,10.56a1.911,1.911,0,0,1-1.85,1.94H351.56Z" style="fill:none;stroke:#63316d;stroke-linejoin:round;stroke-width:12px"/><path d="M392.52,257.86a13.02,13.02,0,1,1-13.02-13.01A13.021,13.021,0,0,1,392.52,257.86Z" style="fill:none;stroke:#63316d;stroke-linejoin:round;stroke-width:12px"/><line x1="379.5" y1="270.88" x2="379.5" y2="322.95" style="fill:none;stroke:#63316d;stroke-linejoin:round;stroke-width:12px"/><path d="M351.56,323.04v24.13a15.24,15.24,0,0,0,15.23,15.24h25.42a15.24,15.24,0,0,0,15.23-15.24V323.04" style="fill:none;stroke:#63316d;stroke-linejoin:round;stroke-width:12px"/><polyline points="351.82 342.52 407.44 342.52 407.72 342.52" style="fill:none;stroke:#63316d;stroke-linejoin:round;stroke-width:12px"/></svg>
